<svg xmlns="http://www.w3.org/2000/svg" viewBox="0 0 820 280" width="820" height="280" role="img" aria-label="A1X6 — Full Stack AI Developer · Aerospace Engineer">
  <rect width="820" height="280" fill="#0a0e17"/>

  <g fill="#f8fafc">
    <circle cx="60"  cy="45"  r="1"   opacity="0.55"/>
    <circle cx="140" cy="78"  r="0.8" opacity="0.35"/>
    <circle cx="220" cy="32"  r="1.2" opacity="0.55"/>
    <circle cx="318" cy="58"  r="0.7" opacity="0.35"/>
    <circle cx="468" cy="24"  r="1"   opacity="0.5"/>
    <circle cx="556" cy="48"  r="0.9" opacity="0.4"/>
    <circle cx="640" cy="32"  r="0.6" opacity="0.3"/>
    <circle cx="730" cy="58"  r="1.1" opacity="0.55"/>
    <circle cx="782" cy="96"  r="0.7" opacity="0.35"/>
    <circle cx="100" cy="228" r="1.1" opacity="0.5"/>
    <circle cx="195" cy="252" r="0.8" opacity="0.35"/>
    <circle cx="288" cy="240" r="1"   opacity="0.45"/>
    <circle cx="492" cy="248" r="0.7" opacity="0.35"/>
    <circle cx="590" cy="258" r="0.9" opacity="0.4"/>
    <circle cx="668" cy="220" r="1.1" opacity="0.5"/>
    <circle cx="754" cy="248" r="0.7" opacity="0.3"/>
  </g>

  <line x1="120" y1="68"  x2="700" y2="68"  stroke="#f8fafc" stroke-opacity="0.14" stroke-width="0.5"/>
  <line x1="120" y1="212" x2="700" y2="212" stroke="#f8fafc" stroke-opacity="0.14" stroke-width="0.5"/>

  <text x="86"  y="152" font-family="'JetBrains Mono', ui-monospace, monospace" font-size="22" fill="#3b82f6">&lt;/&gt;</text>
  <text x="710" y="152" font-family="'JetBrains Mono', ui-monospace, monospace" font-size="22" fill="#3b82f6">&lt;/&gt;</text>

  <text x="410" y="150" text-anchor="middle"
        font-family="Inter, 'Helvetica Neue', Arial, system-ui, sans-serif"
        font-size="92" font-weight="800" fill="#f8fafc" letter-spacing="-4">A1X6</text>

  <text x="410" y="194" text-anchor="middle"
        font-family="'JetBrains Mono', ui-monospace, monospace"
        font-size="12" letter-spacing="7" fill="#f8fafc" fill-opacity="0.7">
    FULL STACK &#160;·&#160; AI &#160;·&#160; AEROSPACE
  </text>
</svg>
